<svg width="19" height="19" viewBox="0 0 19 19" fill="none" xmlns="http://www.w3.org/2000/svg">
<path d="M5.56638 4.05054V2.61627C5.56638 2.49195 5.70925 2.4233 5.80574 2.49937L14.1702 9.03248C14.2413 9.08775 14.2988 9.15851 14.3383 9.23939C14.3779 9.32026 14.3984 9.4091 14.3984 9.49913C14.3984 9.58916 14.3779 9.678 14.3383 9.75887C14.2988 9.83974 14.2413 9.91051 14.1702 9.96578L5.80574 16.4989C5.7074 16.575 5.56638 16.5063 5.56638 16.382V14.9477C5.56638 14.8568 5.60906 14.7696 5.67956 14.7139L12.3593 9.50006L5.67956 4.28433C5.60906 4.22867 5.56638 4.14146 5.56638 4.05054Z" fill="#171717"/>
</svg>
